<svg width="24" height="24" fill="none" xmlns="http://www.w3.org/2000/svg"><path d="M7.234 14.688a6.69 6.69 0 0 1-1.823-2.654 6.478 6.478 0 0 1-.349-3.166A6.61 6.61 0 0 1 6.28 5.863a6.93 6.93 0 0 1 2.524-2.117A7.21 7.21 0 0 1 12.058 3a7.205 7.205 0 0 1 3.242.797 6.918 6.918 0 0 1 2.488 2.157 6.603 6.603 0 0 1 1.166 3.024 6.526 6.526 0 0 1-.423 3.2 6.753 6.753 0 0 1-1.915 2.645 4.272 4.272 0 0 0-1.403 2.428H12.78v-6.138c.454-.154.846-.44 1.125-.818.278-.378.429-.83.43-1.293H12.78c0 .199-.082.39-.227.53a.793.793 0 0 1-.55.22.793.793 0 0 1-.55-.22.737.737 0 0 1-.228-.53H9.67c.002.463.152.915.43 1.293.28.378.672.664 1.125.819v6.137h-2.43a4.87 4.87 0 0 0-1.56-2.563zm1.658 4.062V21h6.221v-2.25h-6.22z" fill="#015FF9"/></svg>