<svg width="24" height="24" fill="none" xmlns="http://www.w3.org/2000/svg"><path d="m13.387 11.607-2-1.566a3.329 3.329 0 0 0-4.108 0l-2 1.565A3.313 3.313 0 0 0 4 14.231V17c0 1.654 1.346 3 3 3h4.667c1.654 0 3-1.346 3-3v-2.768a3.313 3.313 0 0 0-1.28-2.624zM10.667 16a.667.667 0 0 1-.667.667H8.667A.667.667 0 0 1 8 16v-1.333c0-.368.299-.667.667-.667H10c.368 0 .667.299.667.667V16zm6-12H14a3.337 3.337 0 0 0-3.333 3.333v.871c.546.163 1.07.418 1.541.786l2.001 1.567A4.64 4.64 0 0 1 16 14.232V16c0-.369.298-.667.667-.667h.666a.666.666 0 1 1 0 1.334h-.666A.666.666 0 0 1 16 16v1c0 1.164-.464 2.22-1.214 3h1.88A3.337 3.337 0 0 0 20 16.667V7.333A3.337 3.337 0 0 0 16.667 4zM14 8.667h-.667a.666.666 0 1 1 0-1.334H14a.666.666 0 1 1 0 1.334zM17.333 14h-.666a.666.666 0 1 1 0-1.333h.666a.666.666 0 1 1 0 1.333zm0-2.667h-.666a.666.666 0 1 1 0-1.333h.666a.666.666 0 1 1 0 1.333zm0-2.666h-.666a.666.666 0 1 1 0-1.334h.666a.666.666 0 1 1 0 1.334z" fill="#015FF9"/></svg>