<svg width="24" height="24" fill="none" xmlns="http://www.w3.org/2000/svg"><path d="M17.657 5.417C16.145 3.857 14.136 3 12 3s-4.145.859-5.657 2.417C4.832 6.973 4 9.046 4 11.25a8.34 8.34 0 0 0 2.364 5.854l2.867 2.732a3.874 3.874 0 0 0 5.523.014l2.903-2.767C19.168 15.526 20 13.454 20 11.25c0-2.204-.832-4.276-2.343-5.833zm-1.512 4.117-4.213 4.28c-.282.29-.652.435-1.024.435-.371 0-.745-.146-1.03-.439L7.856 11.79a.767.767 0 0 1-.015-1.061.711.711 0 0 1 1.028-.017l2.032 2.03 4.224-4.275a.712.712 0 0 1 1.029.008c.282.295.279.77-.008 1.06z" fill="#015FF9"/></svg>